<svg xmlns="http://www.w3.org/2000/svg" viewBox="0 0 194.04 194.04"><defs><style>.cls-1,.cls-3{fill:#009555;}.cls-2,.cls-4{fill:#fff;}.cls-2,.cls-3{fill-rule:evenodd;}</style></defs><title>Ресурс 2</title><g id="Слой_2" data-name="Слой 2"><g id="Слой_1-2" data-name="Слой 1"><circle class="cls-1" cx="97.02" cy="97.02" r="97.02"/><g id="Фигура_1_копия" data-name="Фигура 1 копия"><path class="cls-2" d="M167.84,93.35,102.93,49.59a10.44,10.44,0,0,0-10.82,0L27.2,93.35c-3,2-3,5.28,0,7.29l64.91,43.77a10.46,10.46,0,0,0,10.82,0l64.91-43.77C170.83,98.63,170.83,95.36,167.84,93.35Z"/></g><g id="Фигура_1_копия-2" data-name="Фигура 1 копия"><path class="cls-3" d="M165.09,93.54l-62.2-41.93a10,10,0,0,0-10.36,0L30.34,93.54c-2.86,1.92-2.86,5,0,7l62.19,41.93a10,10,0,0,0,10.36,0l62.2-41.93C168,98.59,168,95.46,165.09,93.54Z"/></g><path class="cls-1" d="M97.63,147H96.9l-.44,0-.57-.08c-.16,0-.42-.07-.63-.12a13.19,13.19,0,0,1-1.42-.4,10.15,10.15,0,0,1-1.28-.53,9.69,9.69,0,0,1-1.29-.73l-1.94-1.3L80,137.54l-4.49-3-9.47-6.38-4.79-3.23L52,118.61l-9.28-6.27L37.73,109l-8.89-6-1.18-.8a8.17,8.17,0,0,1-1.81-1.71,5.6,5.6,0,0,1-1-1.94,5.23,5.23,0,0,1-.19-1,2.54,2.54,0,0,1,0-.26v-.54c0-.13,0-.33,0-.42s0-.15,0-.2a6.66,6.66,0,0,1,.48-1.58,5.39,5.39,0,0,1,.88-1.33,8.67,8.67,0,0,1,1.66-1.48L30.35,90l11.23-7.57,9.29-6.26,9.29-6.26L65,66.7l9.55-6.44,9-6.06,7.36-5c.36-.24.73-.49,1.12-.71a11.91,11.91,0,0,1,2.9-1.14l.83-.19,1.15-.14.53,0A4.54,4.54,0,0,1,98,47l.38,0,.62.05.58.09s.73.15,1.08.24a12.59,12.59,0,0,1,2.43.94,11.94,11.94,0,0,1,1.09.64l2.38,1.6,8.1,5.46,3.44,2.31,10.13,6.83,4.44,3,9,6.08,5,3.36,9.55,6.44,9.43,6.35c.64.44,1.28.88,1.93,1.31a8.59,8.59,0,0,1,1.64,1.43,5.88,5.88,0,0,1,1,1.64,5.76,5.76,0,0,1,.33,1.07,5.64,5.64,0,0,1,.12,1.16c0,.14,0,.32,0,.43s0,.27-.05.36a6.63,6.63,0,0,1-.18.83,5.33,5.33,0,0,1-1.1,2,8.24,8.24,0,0,1-1.72,1.56l-.75.51-5.55,3.74L151.82,113l-4.75,3.2-9.25,6.24-4.75,3.2-9.29,6.27L119.07,135l-9.6,6.47L104.23,145a13.51,13.51,0,0,1-1.33.77,15.61,15.61,0,0,1-2.29.84c-.18,0-.54.14-.72.17s-.75.11-1,.14l-.23,0-.41,0h-.62Zm.05-1.28h.42c.28,0,.83-.07,1.11-.11s.82-.15,1-.2a12.12,12.12,0,0,0,1.46-.47,11.73,11.73,0,0,0,2.15-1.16l3.25-2.19,9.29-6.27,9.29-6.26L134.8,123l9.47-6.38,4.93-3.33,9.11-6.14,7.57-5.11,1.14-.77a5.43,5.43,0,0,0,.9-.75,4.75,4.75,0,0,0,.59-.75,5.49,5.49,0,0,0,.46-.9,5.41,5.41,0,0,0,.24-.81A7.45,7.45,0,0,0,169.3,97c0-.08,0-.23,0-.31l0-.27a6,6,0,0,0-.18-.88,5,5,0,0,0-1.45-2.18,6.86,6.86,0,0,0-.81-.61l-4-2.67-4.7-3.18-9.65-6.5-9-6.06-9.6-6.46-4.76-3.21-9.2-6.2-6.73-4.54L104,50.32a12.08,12.08,0,0,0-1.47-.87,10.26,10.26,0,0,0-1.72-.68,9.48,9.48,0,0,0-.92-.23l-.37-.06-.93-.11-.33,0a8.51,8.51,0,0,0-1,0l-.58,0a4.81,4.81,0,0,0-.53.07l-.21,0a12,12,0,0,0-1.23.28,10.91,10.91,0,0,0-3.06,1.46l-5.45,3.68-9,6.08-5,3.36L63,69.52l-9.29,6.26-9.55,6.44-9.55,6.44-6,4.07a6.61,6.61,0,0,0-.6.44A5,5,0,0,0,26.54,95a5.23,5.23,0,0,0-.43,1.74,4.85,4.85,0,0,0,.11,1.37,4.69,4.69,0,0,0,1.16,2.24,6.09,6.09,0,0,0,1.09.93l3.25,2.2,8.76,5.91,9.42,6.35,9.47,6.38,9.64,6.5,9.24,6.23,10,6.74,3.3,2.22a11.15,11.15,0,0,0,1.61.92,10,10,0,0,0,2,.72l.57.11.73.1.11,0A10.26,10.26,0,0,0,97.68,145.75Z"/><path class="cls-4" d="M97.71,76.09h16.86a.27.27,0,0,1,.26.36,3.65,3.65,0,0,1-.14.35,2.71,2.71,0,0,1-.55.71,3.46,3.46,0,0,1-.65.49,6.77,6.77,0,0,1-.65.36,2.56,2.56,0,0,1-.92.25l-.47,0H83.9a3.52,3.52,0,0,1-1-.13l-.26-.1a5.38,5.38,0,0,1-1.21-.74,3.11,3.11,0,0,1-.58-.62,2.19,2.19,0,0,1-.28-.55.28.28,0,0,1,0-.18.27.27,0,0,1,.25-.22H97.71Z"/><path class="cls-4" d="M97.94,66.8h4.2a1,1,0,0,1,.24,0,4,4,0,0,1,1.22.62,3,3,0,0,1,.59.59s0,.06.08.07a.71.71,0,0,0,0-.29,1.33,1.33,0,0,0,0-.28.73.73,0,0,0-.1-.28A1.88,1.88,0,0,0,104,67c-.06-.07-.14-.14-.21-.21s0,0,.05,0h7.71a3.24,3.24,0,0,1,.87.11l.3.11a5.33,5.33,0,0,1,1.23.75,3.25,3.25,0,0,1,.56.61,2.26,2.26,0,0,1,.28.56.29.29,0,0,1-.28.4H80.86A.3.3,0,0,1,80.6,69a2,2,0,0,1,.27-.54,2.8,2.8,0,0,1,.64-.69,4.91,4.91,0,0,1,1.16-.7,2.75,2.75,0,0,1,1-.23h6.66a1.27,1.27,0,0,1,.34,0,4.09,4.09,0,0,1,1.14.58,2.89,2.89,0,0,1,.61.6l.06.08h0a1,1,0,0,0,0-.71,1.33,1.33,0,0,0-.45-.58l.06,0h4.13a1.13,1.13,0,0,1,.32,0,3.8,3.8,0,0,1,1.23.64,2.72,2.72,0,0,1,.53.54l.06.08s0,0,0,0A1.14,1.14,0,0,0,98,66.92l-.11-.09Z"/><path class="cls-4" d="M81.37,71.76a2.4,2.4,0,0,1,.79.19,2.88,2.88,0,0,1,.61.36,5,5,0,0,0,.45.29,1.84,1.84,0,0,0,.38.17,1.44,1.44,0,0,0,1.08,0,3,3,0,0,0,.47-.25l.34-.24A3.64,3.64,0,0,1,86,72a1.85,1.85,0,0,1,1.59-.07,2.91,2.91,0,0,1,.62.35l.39.27a2.34,2.34,0,0,0,.58.26,1.49,1.49,0,0,0,.91,0,2.17,2.17,0,0,0,.46-.22l.43-.29a3.88,3.88,0,0,1,.48-.3A1.86,1.86,0,0,1,93,71.92a3.4,3.4,0,0,1,.67.38,3.08,3.08,0,0,0,.48.32,2.14,2.14,0,0,0,.44.18,1.38,1.38,0,0,0,.92,0,2,2,0,0,0,.53-.26c.13-.08.24-.16.36-.25a3.33,3.33,0,0,1,.61-.35,1.77,1.77,0,0,1,1.49,0,3.22,3.22,0,0,1,.56.34c.14.09.27.19.42.28a2.14,2.14,0,0,0,.43.21,1.49,1.49,0,0,0,1,0,2.76,2.76,0,0,0,.52-.25l.39-.27a2.73,2.73,0,0,1,.85-.43,1.8,1.8,0,0,1,1.21.08,3,3,0,0,1,.62.36l.42.29a3.55,3.55,0,0,0,.44.21,1.46,1.46,0,0,0,1,0,2.38,2.38,0,0,0,.51-.24c.13-.08.25-.17.37-.26a2.91,2.91,0,0,1,.78-.41,1.83,1.83,0,0,1,1.38.08,3.81,3.81,0,0,1,.55.33l.41.28a3.11,3.11,0,0,0,.45.22,1.49,1.49,0,0,0,1,0,2.73,2.73,0,0,0,.59-.3l.33-.23a2.88,2.88,0,0,1,.84-.42,1.76,1.76,0,0,1,.79,0,.28.28,0,0,1,.26.3v.21a.28.28,0,0,1-.32.28h0a1.46,1.46,0,0,0-.77.12,2.2,2.2,0,0,0-.51.3,4.79,4.79,0,0,1-.58.37,2.17,2.17,0,0,1-.7.25,2,2,0,0,1-1.09-.09,3,3,0,0,1-.64-.32l-.33-.23a2.42,2.42,0,0,0-.4-.25,1.28,1.28,0,0,0-1.08-.08,2.16,2.16,0,0,0-.58.31l-.31.22a3,3,0,0,1-.61.32,2.06,2.06,0,0,1-1.58,0,3.43,3.43,0,0,1-.79-.45l-.19-.13a3.79,3.79,0,0,0-.34-.2,1.28,1.28,0,0,0-1-.08,2.37,2.37,0,0,0-.61.32l-.31.22a3.6,3.6,0,0,1-.61.33,2.08,2.08,0,0,1-1.57,0,3.79,3.79,0,0,1-.81-.45,1.61,1.61,0,0,0-.3-.21,1.72,1.72,0,0,0-.38-.2,1.27,1.27,0,0,0-.86,0,2,2,0,0,0-.38.2l-.29.2a3.67,3.67,0,0,1-.82.46,2,2,0,0,1-1.58,0,3.66,3.66,0,0,1-.79-.45l-.31-.21a1.68,1.68,0,0,0-.64-.25,1.2,1.2,0,0,0-.65.06,2.26,2.26,0,0,0-.55.3l-.36.25a3.23,3.23,0,0,1-.58.31,2.08,2.08,0,0,1-1.57,0,3.43,3.43,0,0,1-.79-.45c-.11-.07-.21-.15-.32-.21A1.69,1.69,0,0,0,87,72.6a1.2,1.2,0,0,0-.65.05,1.59,1.59,0,0,0-.41.21l-.32.22a3.93,3.93,0,0,1-.77.44,2.1,2.1,0,0,1-1,.14,1.88,1.88,0,0,1-.61-.15,3.44,3.44,0,0,1-.81-.46l-.31-.21a1.74,1.74,0,0,0-.62-.24,1.7,1.7,0,0,0-.39,0h-.11a.26.26,0,0,1-.26-.26,2.44,2.44,0,0,1,0-.27A.29.29,0,0,1,81,71.8Z"/><path class="cls-4" d="M97.69,75.15H81.48a.42.42,0,0,1-.09-.82l.09,0h32.44a.43.43,0,0,1,.38.37.42.42,0,0,1-.28.45.25.25,0,0,1-.12,0H97.69Z"/><path class="cls-4" d="M109.12,71.14h-4.84a.38.38,0,0,1-.35-.38.41.41,0,0,1,.42-.46h9.56a.42.42,0,0,1,.33.64.38.38,0,0,1-.28.19h-4.84Z"/><path class="cls-4" d="M86.27,71.14H81.43a.4.4,0,0,1-.34-.39.41.41,0,0,1,.42-.45h9.57a.42.42,0,0,1,.33.63.38.38,0,0,1-.29.2H86.27Z"/><path class="cls-4" d="M97.68,70.29h4.8a.43.43,0,0,1,.32.65.38.38,0,0,1-.29.18H92.83a.4.4,0,0,1-.35-.38.46.46,0,0,1,.07-.27.43.43,0,0,1,.32-.19h4.81Z"/><path class="cls-4" d="M53.7,85.21c4.09-.1,4.75,3.55,4.75,6.13l-3.33.31c0-1.54-.22-3.33-1.36-3.33-.88,0-1.16,1-1.16,2.3,0,1.57,1.35,3.33,2.67,5.25,1.58,2.35,3.18,4.65,3.18,7.13,0,3.08-1,5.82-4.72,5.82-4.37,0-4.93-3.3-4.93-6.73l3.33-.31c0,1.91.19,3.93,1.6,3.93,1,0,1.39-1.1,1.39-2.55s-1.45-3.4-2.74-5.34c-1.6-2.36-3.11-4.72-3.11-7.2S50.49,85.27,53.7,85.21Z"/><path class="cls-4" d="M60.52,108.57,64,85.46h4.15l3.49,23.11h-3.3l-.63-4.72H64.45l-.63,4.72ZM66.28,93l-.1-.59H66L65.9,93l-1,7.3h2.33Z"/><path class="cls-4" d="M78,96.53l-.28-1.07h-.19v13.11H74.42V85.46h3l3.3,12L81,98.57h.19V85.46h3.11v23.11h-3Z"/><path class="cls-4" d="M90.7,108.57H88V85.46H90.7C97,85.49,97.46,88,97.46,97S97,108.54,90.7,108.57Zm.73-3.4c2.39,0,2.54-.59,2.51-8.17s-.12-8.15-2.51-8.15Z"/><path class="cls-4" d="M105.79,108.57h-2.64L100,85.46h3.14l1.36,12,.06.75h.25l.09-.75,1.45-12h2.45l1.45,12,.09.75h.26l.06-.75,1.35-12h3.14l-3.11,23.11h-2.64l-1.57-10.94-.19-1.36h-.13l-.18,1.36Z"/><path class="cls-4" d="M118,85.46h3.4v23.11H118Z"/><path class="cls-4" d="M134,100.65v3.17s0,5-4.52,5-4.53-5-4.53-5V90.21s0-5,4.53-5,4.52,5,4.52,5v3.17h-3.17V90.21s.12-1.7-1.29-1.7c-1.2,0-1.2,1.7-1.2,1.7v13.61s0,1.7,1.2,1.7c1.41,0,1.29-1.7,1.29-1.7v-3.17Z"/><path class="cls-4" d="M143.24,98.51H140.6v10.06h-3.4V85.46h3.4V95h2.64V85.46h3.39v23.11h-3.39Z"/><path class="cls-4" d="M82.77,121.42a2.12,2.12,0,0,1-.79,1.73,3.45,3.45,0,0,1-2.2.63,5.1,5.1,0,0,1-2.29-.49V121.7a9.93,9.93,0,0,0,1.39.51,4.08,4.08,0,0,0,1,.15,1.5,1.5,0,0,0,.86-.21.75.75,0,0,0,.3-.64.73.73,0,0,0-.13-.43,1.51,1.51,0,0,0-.39-.35,8.52,8.52,0,0,0-1-.55,5.18,5.18,0,0,1-1.11-.67,2.39,2.39,0,0,1-.59-.75,2.07,2.07,0,0,1-.22-1,2.1,2.1,0,0,1,.72-1.69,3,3,0,0,1,2-.61,5.19,5.19,0,0,1,1.2.14,7.61,7.61,0,0,1,1.2.43l-.56,1.33A7.26,7.26,0,0,0,81.1,117a3.44,3.44,0,0,0-.83-.11,1.14,1.14,0,0,0-.75.23.76.76,0,0,0-.26.59.77.77,0,0,0,.11.4,1.12,1.12,0,0,0,.33.32,9.73,9.73,0,0,0,1.09.57,4.17,4.17,0,0,1,1.55,1.09A2.06,2.06,0,0,1,82.77,121.42Z"/><path class="cls-4" d="M87.69,123.67H86V117h-2.2v-1.43h6.11V117h-2.2Z"/><path class="cls-4" d="M93.19,120.57v3.1H91.47v-8.09h2.36a4,4,0,0,1,2.44.6,2.4,2.4,0,0,1,.4,3.09,2.69,2.69,0,0,1-1.12.88c1.22,1.81,2,3,2.38,3.52H96l-1.93-3.1Zm0-1.4h.55a2.13,2.13,0,0,0,1.2-.27,1,1,0,0,0,.39-.85.88.88,0,0,0-.4-.82,2.4,2.4,0,0,0-1.22-.24h-.52Z"/><path class="cls-4" d="M104,123.67H99.29v-8.09H104V117H101v1.77h2.73v1.41H101v2.08H104Z"/><path class="cls-4" d="M110.63,123.67H106v-8.09h4.65V117h-2.94v1.77h2.74v1.41h-2.74v2.08h2.94Z"/><path class="cls-4" d="M115.78,123.67h-1.71V117h-2.2v-1.43H118V117h-2.2Z"/></g></g></svg>