<svg xmlns="http://www.w3.org/2000/svg" viewBox="0 0 194.04 194.04"><defs><style>.cls-1{fill:#c90000;}.cls-2{fill:#fff;}</style></defs><title>Ресурс 1</title><g id="Слой_2" data-name="Слой 2"><g id="Слой_1-2" data-name="Слой 1"><circle class="cls-1" cx="97.02" cy="97.02" r="97.02"/><path class="cls-2" d="M59.72,124.18v-11.7h2v11.7Zm5.85,0H62.65v-2H64.8l.77-.77v-1.38l-.77-.78H62.65v-2H64.8l.77-.77V115.2l-.77-.77H62.65v-2h2.92l2,2v2.92l-1,1,1,1v2.93Z"/><path class="cls-2" d="M72.85,124.18l-1.95-2v-9.75h1.95v9l.78.77h.68v2Zm3.9,0H75.29v-2H76l.77-.77v-9h2v9.75Z"/><path class="cls-2" d="M82.06,124.18v-11.7h2v11.7Zm5.69,0-2.07-4.88H85v-2h2.15l.77-.77V115.2l-.77-.77H85v-2h2.92l2,2v2.92l-2,2,2,4.88Z"/><path class="cls-2" d="M95.09,124.18l-2-2v-7.8l2-2h1.47v2h-.69l-.78.77v6.26l.78.77h.69v2Zm3.9-9-.79-.77h-.67v-2H99l2,2v.77Zm0,9H97.53v-2h.67l.79-.77v-1.38H97.53v-1.75h3.41v3.9Z"/><path class="cls-2" d="M103.85,124.18v-11.7h2v11.7Zm2.93-9.75v-2h4.87v2Zm0,4.87v-2h3.11v2Zm0,4.88v-2h4.87v2Z"/><path class="cls-2" d="M114.43,124.18v-11.7h1.95v11.7Zm5.68,0L118,119.3h-.69v-2h2.15l.78-.77V115.2l-.78-.77h-2.15v-2h2.93l2,2v2.92l-2,2,2,4.88Z"/><path class="cls-2" d="M127.34,119.3l-2-2v-2.92l2-2h1.46v2h-.67l-.79.81v1.31l.79.8h.67v2Zm0,4.88-2-2v-.77h2l.79.77h.67v2Zm3.9-9-.76-.77h-.7v-2h1.46l1.95,2v.77Zm0,9h-1.46v-2h.68l.78-.77v-1.38l-.78-.78h-.68v-2h1.46l1.95,2v2.93Z"/><path class="cls-2" d="M23.65,104l-3.52-3.51V86.42l3.52-3.51h2.64v3.51H25l-1.39,1.4V99.09l1.39,1.4h1.25V104Zm7.06,0H28v-3.51h1.22l1.42-1.4V87.82l-1.39-1.4H28V82.91h2.64l3.52,3.51v14.07Z"/><path class="cls-2" d="M37.59,104V82.91h3.52V104Zm5.27,0v-3.51h8.79V104Z"/><path class="cls-2" d="M54,104V82.91H57.5V104Zm10.54,0H59.26v-3.51h3.85l1.42-1.4V87.82l-1.42-1.4H59.26V82.91h5.27l3.52,3.51v14.07Z"/><path class="cls-2" d="M75.26,95.21,71.74,91.7V86.42l3.52-3.51H77.9v3.51H76.68l-1.42,1.46v2.36l1.42,1.46H77.9v3.51Zm0,8.79-3.52-3.51v-1.4h3.52l1.42,1.4H77.9V104Zm7-16.18-1.36-1.4H79.65V82.91h2.64l3.52,3.51v1.4Zm0,16.18H79.65v-3.51H80.9l1.39-1.4V96.61l-1.39-1.4H79.65V91.7h2.64l3.52,3.51v5.28Z"/><path class="cls-2" d="M92.84,104l-3.52-3.51V86.42l3.52-3.51h2.63v3.51H94.23l-1.39,1.4V99.09l1.39,1.4h1.24V104Zm7-16.18-1.43-1.4H97.23V82.91h2.64l3.51,3.51v1.4Zm0,16.18H97.23v-3.51h1.21l1.43-1.4h3.51v1.4Z"/><path class="cls-2" d="M106.32,104V82.91h3.52V104Zm10.55,0V95.21H111.6V91.7h5.27V82.91h3.51V104Z"/><path class="cls-2" d="M127.93,104l-3.52-3.51V86.42l3.52-3.51h2.64v3.51h-1.25l-1.39,1.4V99.09l1.39,1.4h1.25V104Zm7.06,0h-2.67v-3.51h1.22l1.42-1.4V87.82l-1.39-1.4h-1.25V82.91H135l3.52,3.51v14.07Z"/><path class="cls-2" d="M145.9,104l-3.52-3.51V86.42l3.52-3.51h2.64v3.51h-1.25l-1.39,1.4V99.09l1.39,1.4h1.25V104Zm7.06,0H150.3v-3.51h1.21l1.42-1.4V87.82l-1.39-1.4H150.3V82.91h2.63l3.52,3.51v14.07Z"/><path class="cls-2" d="M159.84,104V82.91h3.52V104Zm5.27,0v-3.51h8.79V104Z"/></g></g></svg>